<?xml version="1.0" encoding="UTF-8" standalone="no"?>
<svg
   xmlns:dc="http://purl.org/dc/elements/1.1/"
   xmlns:cc="http://creativecommons.org/ns#"
   xmlns:rdf="http://www.w3.org/1999/02/22-rdf-syntax-ns#"
   xmlns:svg="http://www.w3.org/2000/svg"
   xmlns="http://www.w3.org/2000/svg"
   height="54.049999"
   width="188.98785"
   version="1.1"
   viewBox="0 0 188.98785 54.049999"
   data-name="Ebene 1"
   id="Ebene_1">
  <metadata
     id="metadata70">
    <rdf:RDF>
      <cc:Work
         rdf:about="">
        <dc:format>image/svg+xml</dc:format>
        <dc:type
           rdf:resource="http://purl.org/dc/dcmitype/StillImage" />
        <dc:title>Zeichenfläche 1</dc:title>
      </cc:Work>
    </rdf:RDF>
  </metadata>
  <defs
     id="defs13">
    <style
       id="style2">.cls-1{fill:url(#Unbenannter_Verlauf_7);}.cls-2{fill:#328ccc;}</style>
    <linearGradient
       gradientTransform="translate(-12,-0.18)"
       gradientUnits="userSpaceOnUse"
       y2="-21.07"
       x2="149.78"
       y1="73.400002"
       x1="55.32"
       id="Unbenannter_Verlauf_7">
      <stop
         id="stop4"
         stop-color="#006eb7"
         offset="0" />
      <stop
         id="stop6"
         stop-color="#1178be"
         offset="0.26" />
      <stop
         id="stop8"
         stop-color="#2987c8"
         offset="0.72" />
      <stop
         id="stop10"
         stop-color="#328ccc"
         offset="1" />
    </linearGradient>
  </defs>
  <title
     id="title15">Zeichenfläche 1</title>
  <path
     style="fill:url(#Unbenannter_Verlauf_7)"
     id="path17"
     d="m 162,10 h -38.39 -40.2 a 8.5,8.5 0 0 0 0,17 h 4.94 a 7.09,7.09 0 0 1 0,14.17 H 48.82 a 2.5,2.5 0 0 1 0,-5 h 12 a 3.89,3.89 0 0 0 3.65,-5.22 L 58.25,13.82 a 5.64,5.64 0 0 0 -10.62,0 l -8.95,24.59 a 4.25,4.25 0 0 1 -4,2.8 H 17.06 A 4.25,4.25 0 0 1 12.83,36.96 V 10.04 H 10 v 26.92 a 7.08,7.08 0 0 0 7.06,7.08 h 17.65 a 7.08,7.08 0 0 0 6.64,-4.66 L 50.3,14.74 a 2.82,2.82 0 0 1 5.3,0 L 61.83,32 a 1.07,1.07 0 0 1 -1,1.43 h -12 a 5.31,5.31 0 0 0 0,10.62 h 74.82 a 9.915,9.915 0 0 0 0,-19.83 h -4.94 a 5.67,5.67 0 0 1 0,-11.34 h 33.93 a 16.92,16.92 0 1 0 9.4,-2.87 z m -43.33,17 h 4.94 a 7.09,7.09 0 0 1 0,14.17 h -28.4 a 9.91,9.91 0 0 0 -6.9,-17 h -4.9 a 5.67,5.67 0 0 1 0,-11.34 h 29 A 8.49,8.49 0 0 0 118.7,27 Z M 162,41.17 a 14.16,14.16 0 0 1 -0.77,-28.3 h 0.79 v 0 a 14.17,14.17 0 0 1 0,28.34 z"
     class="cls-1" />
</svg>
